<svg xmlns="http://www.w3.org/2000/svg" xmlns:xlink="http://www.w3.org/1999/xlink" width="499" zoomAndPan="magnify" viewBox="0 0 374.25 185.249993" height="247" preserveAspectRatio="xMidYMid meet" version="1.0"><defs><g/><clipPath id="e21cf59037"><path d="M 173.554688 54.746094 L 372.996094 54.746094 L 372.996094 127 L 173.554688 127 Z M 173.554688 54.746094 " clip-rule="nonzero"/></clipPath><clipPath id="3388edd778"><path d="M 370.367188 78.832031 C 371.953125 82.523438 372.996094 86.746094 372.996094 90.878906 C 372.996094 95.007812 372.101562 98.984375 370.515625 102.648438 C 370.464844 102.726562 370.464844 102.804688 370.417969 102.882812 C 364.066406 116.640625 347.304688 126.773438 325.777344 126.96875 L 173.84375 126.96875 L 173.84375 54.746094 L 325.664062 54.746094 C 347.402344 54.941406 364.167969 64.917969 370.367188 78.832031 Z M 370.367188 78.832031 " clip-rule="nonzero"/></clipPath></defs><path fill="#9c9cdb" d="M 92.027344 0.167969 C 41.09375 0.339844 0.390625 41.75 1.054688 92.675781 C 1.117188 97.800781 1.605469 102.886719 2.527344 107.929688 C 3.449219 112.972656 4.785156 117.902344 6.539062 122.722656 C 8.296875 127.539062 10.441406 132.171875 12.980469 136.628906 C 15.519531 141.082031 18.417969 145.289062 21.667969 149.253906 C 22.179688 149.882812 22.589844 150.570312 22.894531 151.324219 C 23.199219 152.074219 23.386719 152.851562 23.457031 153.660156 C 23.527344 154.46875 23.480469 155.269531 23.308594 156.0625 C 23.140625 156.855469 22.855469 157.605469 22.460938 158.3125 L 14.597656 172.40625 C 12.414062 176.3125 15.96875 180.933594 20.304688 179.828125 L 46.941406 173.046875 C 47.867188 172.8125 48.808594 172.742188 49.761719 172.839844 C 50.714844 172.9375 51.625 173.195312 52.484375 173.617188 C 58.375 176.476562 64.503906 178.675781 70.867188 180.210938 C 77.234375 181.75 83.6875 182.585938 90.234375 182.726562 C 141.441406 183.886719 183.472656 142.96875 183.632812 91.75 C 183.789062 41.09375 142.6875 -0.00390625 92.027344 0.167969 Z M 92.339844 171.503906 C 91.03125 171.503906 89.71875 171.46875 88.414062 171.40625 C 87.105469 171.339844 85.796875 171.246094 84.496094 171.117188 C 83.191406 170.988281 81.890625 170.828125 80.59375 170.636719 C 79.300781 170.445312 78.007812 170.21875 76.722656 169.964844 C 75.441406 169.707031 74.160156 169.421875 72.890625 169.105469 C 71.621094 168.785156 70.359375 168.4375 69.105469 168.054688 C 67.851562 167.675781 66.609375 167.265625 65.375 166.824219 C 64.140625 166.382812 62.917969 165.910156 61.707031 165.410156 C 60.5 164.910156 59.300781 164.378906 58.117188 163.816406 C 56.933594 163.257812 55.761719 162.667969 54.609375 162.050781 C 53.453125 161.433594 52.3125 160.789062 51.191406 160.113281 C 50.066406 159.441406 48.960938 158.742188 47.871094 158.011719 C 46.78125 157.285156 45.710938 156.53125 44.660156 155.75 C 43.605469 154.96875 42.574219 154.164062 41.5625 153.332031 C 40.546875 152.503906 39.558594 151.648438 38.585938 150.769531 C 37.617188 149.886719 36.667969 148.984375 35.742188 148.058594 C 34.816406 147.132812 33.910156 146.183594 33.03125 145.214844 C 32.152344 144.242188 31.296875 143.25 30.464844 142.238281 C 29.632812 141.226562 28.828125 140.195312 28.046875 139.140625 C 27.269531 138.089844 26.515625 137.019531 25.785156 135.929688 C 25.058594 134.839844 24.359375 133.734375 23.683594 132.609375 C 23.011719 131.488281 22.367188 130.347656 21.75 129.191406 C 21.128906 128.035156 20.542969 126.867188 19.980469 125.683594 C 19.421875 124.5 18.890625 123.300781 18.390625 122.089844 C 17.886719 120.878906 17.417969 119.660156 16.976562 118.425781 C 16.535156 117.191406 16.125 115.949219 15.742188 114.695312 C 15.363281 113.441406 15.015625 112.179688 14.695312 110.910156 C 14.378906 109.636719 14.089844 108.359375 13.835938 107.074219 C 13.578125 105.789062 13.355469 104.5 13.164062 103.203125 C 12.972656 101.910156 12.8125 100.609375 12.683594 99.304688 C 12.554688 98 12.457031 96.695312 12.394531 95.386719 C 12.328125 94.078125 12.296875 92.769531 12.296875 91.460938 C 12.296875 47.253906 48.132812 11.417969 92.339844 11.417969 C 136.375 11.417969 172.105469 46.976562 172.382812 90.945312 C 172.660156 135.0625 136.460938 171.503906 92.339844 171.503906 Z M 92.339844 171.503906 " fill-opacity="1" fill-rule="nonzero"/><path fill="#9c9cdb" d="M 78.035156 52.542969 L 78.070312 52.617188 L 82.84375 62.085938 C 83.101562 62.59375 83.316406 63.121094 83.488281 63.664062 C 83.660156 64.210938 83.785156 64.765625 83.867188 65.328125 C 83.953125 65.890625 83.988281 66.460938 83.980469 67.03125 C 83.96875 67.601562 83.914062 68.164062 83.8125 68.726562 C 83.714844 69.289062 83.570312 69.839844 83.378906 70.375 C 83.191406 70.914062 82.960938 71.433594 82.6875 71.933594 C 82.414062 72.433594 82.101562 72.910156 81.753906 73.359375 C 81.402344 73.8125 81.019531 74.230469 80.601562 74.621094 C 80.1875 75.003906 79.804688 75.421875 79.457031 75.867188 C 79.105469 76.316406 78.796875 76.789062 78.523438 77.285156 C 78.25 77.78125 78.019531 78.296875 77.828125 78.832031 C 77.640625 79.367188 77.492188 79.910156 77.390625 80.46875 C 77.289062 81.027344 77.230469 81.589844 77.21875 82.15625 C 77.207031 82.722656 77.242188 83.285156 77.320312 83.847656 C 77.398438 84.410156 77.523438 84.960938 77.691406 85.503906 C 77.859375 86.042969 78.066406 86.570312 78.320312 87.078125 C 81.1875 92.832031 86.152344 100.765625 93.726562 106.488281 C 94.578125 107.132812 95.503906 107.636719 96.503906 108.003906 C 97.503906 108.371094 98.539062 108.582031 99.601562 108.636719 C 100.667969 108.695312 101.71875 108.589844 102.75 108.332031 C 103.785156 108.070312 104.757812 107.664062 105.671875 107.113281 L 108.746094 105.242188 C 109.433594 104.820312 110.160156 104.484375 110.929688 104.230469 C 111.695312 103.980469 112.480469 103.816406 113.285156 103.742188 C 114.085938 103.667969 114.890625 103.683594 115.6875 103.792969 C 116.488281 103.902344 117.265625 104.101562 118.019531 104.386719 L 130.242188 109.03125 C 130.890625 109.28125 131.511719 109.589844 132.101562 109.957031 C 132.691406 110.328125 133.238281 110.75 133.746094 111.230469 C 134.253906 111.707031 134.707031 112.230469 135.109375 112.796875 C 135.515625 113.363281 135.859375 113.964844 136.144531 114.601562 C 136.429688 115.234375 136.648438 115.890625 136.804688 116.570312 C 136.960938 117.25 137.050781 117.9375 137.070312 118.632812 C 137.089844 119.328125 137.042969 120.019531 136.925781 120.707031 C 136.8125 121.390625 136.628906 122.058594 136.382812 122.710938 C 136.238281 123.085938 136.078125 123.449219 135.894531 123.804688 L 132.507812 130.367188 C 132.234375 130.898438 131.917969 131.402344 131.558594 131.878906 C 131.199219 132.355469 130.800781 132.800781 130.367188 133.210938 C 129.933594 133.621094 129.46875 133.992188 128.96875 134.324219 C 128.472656 134.65625 127.953125 134.941406 127.40625 135.1875 C 126.859375 135.429688 126.296875 135.625 125.71875 135.773438 C 125.140625 135.921875 124.554688 136.023438 123.957031 136.070312 C 123.363281 136.121094 122.769531 136.121094 122.171875 136.070312 C 121.578125 136.015625 120.992188 135.917969 120.414062 135.765625 C 101.21875 130.800781 55.476562 113.539062 51.792969 61.347656 C 51.71875 60.3125 51.796875 59.285156 52.023438 58.273438 C 52.25 57.261719 52.621094 56.300781 53.128906 55.394531 C 53.636719 54.492188 54.265625 53.679688 55.015625 52.957031 C 55.761719 52.238281 56.597656 51.640625 57.523438 51.164062 L 63.753906 47.964844 C 64.375 47.644531 65.019531 47.390625 65.6875 47.199219 C 66.355469 47.007812 67.039062 46.882812 67.734375 46.824219 C 68.425781 46.769531 69.121094 46.78125 69.8125 46.859375 C 70.503906 46.9375 71.179688 47.082031 71.84375 47.296875 C 72.507812 47.507812 73.140625 47.785156 73.75 48.121094 C 74.359375 48.460938 74.929688 48.855469 75.460938 49.304688 C 75.992188 49.753906 76.472656 50.253906 76.90625 50.796875 C 77.339844 51.34375 77.714844 51.925781 78.035156 52.542969 Z M 78.035156 52.542969 " fill-opacity="1" fill-rule="nonzero"/><g clip-path="url(#e21cf59037)"><g clip-path="url(#3388edd778)"><path stroke-linecap="butt" transform="matrix(0, 0.746976, -0.746976, 0, 372.995725, 54.745991)" fill="none" stroke-linejoin="miter" d="M 32.244742 3.518906 C 37.186544 1.395762 42.839547 -0.00049352 48.372273 -0.00049352 C 53.899771 -0.00049352 59.22332 1.197044 64.128516 3.320188 C 64.233105 3.388171 64.337693 3.388171 64.442281 3.450924 C 82.860299 11.953961 96.425415 34.393403 96.686886 63.212737 L 96.686886 266.611032 L 0.000137362 266.611032 L 0.000137362 63.36439 C 0.261608 34.262667 13.617547 11.817996 32.244742 3.518906 Z M 32.244742 3.518906 " stroke="#9c9cdb" stroke-width="12" stroke-opacity="1" stroke-miterlimit="4"/></g></g><g fill="#9c9cdb" fill-opacity="1"><g transform="translate(231.091518, 100.907414)"><g><path d="M 13.265625 -13.859375 C 15.921875 -13.359375 17.859375 -12.554688 19.078125 -11.453125 C 20.304688 -10.347656 20.921875 -8.734375 20.921875 -6.609375 C 20.921875 -4.515625 20.226562 -2.820312 18.84375 -1.53125 C 17.46875 -0.238281 15.597656 0.40625 13.234375 0.40625 C 11.847656 0.40625 10.515625 0.140625 9.234375 -0.390625 C 7.960938 -0.929688 6.96875 -1.648438 6.25 -2.546875 L 6.25 0 L 2.4375 0 L 2.4375 -7.734375 L 5.859375 -7.734375 C 6.285156 -6.265625 7.082031 -5.085938 8.25 -4.203125 C 9.414062 -3.316406 10.820312 -2.875 12.46875 -2.875 C 13.53125 -2.875 14.359375 -3.117188 14.953125 -3.609375 C 15.554688 -4.097656 15.859375 -4.796875 15.859375 -5.703125 C 15.859375 -6.734375 15.546875 -7.476562 14.921875 -7.9375 C 14.296875 -8.40625 13.175781 -8.800781 11.5625 -9.125 L 9.515625 -9.515625 C 7.128906 -9.992188 5.320312 -10.8125 4.09375 -11.96875 C 2.875 -13.125 2.265625 -14.671875 2.265625 -16.609375 C 2.265625 -18.628906 2.941406 -20.238281 4.296875 -21.4375 C 5.648438 -22.632812 7.457031 -23.234375 9.71875 -23.234375 C 11.125 -23.234375 12.378906 -23.015625 13.484375 -22.578125 C 14.585938 -22.140625 15.5 -21.519531 16.21875 -20.71875 L 16.21875 -22.796875 L 19.796875 -22.796875 L 19.796875 -16.21875 L 16.5 -16.21875 C 16.125 -17.28125 15.488281 -18.171875 14.59375 -18.890625 C 13.707031 -19.609375 12.46875 -19.96875 10.875 -19.96875 C 9.84375 -19.96875 9.039062 -19.734375 8.46875 -19.265625 C 7.894531 -18.796875 7.609375 -18.164062 7.609375 -17.375 C 7.609375 -16.46875 7.957031 -15.769531 8.65625 -15.28125 C 9.363281 -14.789062 10.488281 -14.398438 12.03125 -14.109375 Z M 13.265625 -13.859375 "/></g></g></g><g fill="#9c9cdb" fill-opacity="1"><g transform="translate(253.637987, 100.907414)"><g><path d="M 20.59375 -2.984375 L 20.59375 0 L 13.75 0 L 13.625 -1.671875 C 11.789062 -0.285156 9.921875 0.40625 8.015625 0.40625 C 6.253906 0.40625 4.914062 -0.101562 4 -1.125 C 3.082031 -2.15625 2.625 -3.46875 2.625 -5.0625 L 2.625 -12.875 L 0.4375 -12.875 L 0.4375 -15.859375 L 7.484375 -15.859375 L 7.484375 -5.734375 C 7.484375 -4.890625 7.6875 -4.21875 8.09375 -3.71875 C 8.507812 -3.226562 9.117188 -2.984375 9.921875 -2.984375 C 11.117188 -2.984375 12.285156 -3.410156 13.421875 -4.265625 L 13.421875 -12.875 L 11.28125 -12.875 L 11.28125 -15.859375 L 18.203125 -15.859375 L 18.203125 -2.984375 Z M 20.59375 -2.984375 "/></g></g></g><g fill="#9c9cdb" fill-opacity="1"><g transform="translate(274.710566, 100.907414)"><g><path d="M 20.515625 -15.859375 L 20.515625 -12.875 L 18.328125 -12.875 L 18.328125 -0.40625 C 18.328125 2.257812 17.5625 4.269531 16.03125 5.625 C 14.507812 6.976562 12.429688 7.65625 9.796875 7.65625 C 7.722656 7.65625 5.503906 7.269531 3.140625 6.5 L 3.9375 3.34375 C 5.851562 3.957031 7.566406 4.265625 9.078125 4.265625 C 10.515625 4.265625 11.609375 3.914062 12.359375 3.21875 C 13.117188 2.53125 13.5 1.523438 13.5 0.203125 L 13.5 -1.3125 C 12.144531 -0.28125 10.550781 0.234375 8.71875 0.234375 C 6.414062 0.234375 4.550781 -0.5 3.125 -1.96875 C 1.707031 -3.445312 1 -5.445312 1 -7.96875 C 1 -10.488281 1.703125 -12.492188 3.109375 -13.984375 C 4.515625 -15.472656 6.375 -16.21875 8.6875 -16.21875 C 9.613281 -16.21875 10.515625 -16.050781 11.390625 -15.71875 C 12.265625 -15.382812 13.023438 -14.941406 13.671875 -14.390625 L 13.703125 -15.859375 Z M 5.984375 -7.890625 C 5.984375 -6.453125 6.375 -5.320312 7.15625 -4.5 C 7.9375 -3.675781 8.953125 -3.265625 10.203125 -3.265625 C 11.398438 -3.265625 12.5 -3.597656 13.5 -4.265625 L 13.46875 -11.5625 C 12.320312 -12.351562 11.179688 -12.75 10.046875 -12.75 C 8.816406 -12.75 7.832031 -12.328125 7.09375 -11.484375 C 6.351562 -10.648438 5.984375 -9.453125 5.984375 -7.890625 Z M 5.984375 -7.890625 "/></g></g></g><g fill="#9c9cdb" fill-opacity="1"><g transform="translate(295.703484, 100.907414)"><g><path d="M 17.25 -7.09375 L 5.5 -7.09375 C 5.707031 -5.84375 6.242188 -4.878906 7.109375 -4.203125 C 7.972656 -3.523438 9.054688 -3.1875 10.359375 -3.1875 C 12.328125 -3.1875 14.09375 -3.863281 15.65625 -5.21875 L 17.046875 -2.3125 C 16.171875 -1.457031 15.125 -0.785156 13.90625 -0.296875 C 12.6875 0.191406 11.34375 0.4375 9.875 0.4375 C 7.164062 0.4375 4.984375 -0.3125 3.328125 -1.8125 C 1.671875 -3.3125 0.84375 -5.347656 0.84375 -7.921875 C 0.84375 -9.546875 1.207031 -10.988281 1.9375 -12.25 C 2.664062 -13.507812 3.679688 -14.488281 4.984375 -15.1875 C 6.285156 -15.894531 7.742188 -16.25 9.359375 -16.25 C 11.804688 -16.25 13.734375 -15.5 15.140625 -14 C 16.546875 -12.5 17.25 -10.53125 17.25 -8.09375 Z M 12.703125 -9.359375 C 12.703125 -10.523438 12.394531 -11.425781 11.78125 -12.0625 C 11.175781 -12.707031 10.34375 -13.03125 9.28125 -13.03125 C 8.25 -13.03125 7.398438 -12.707031 6.734375 -12.0625 C 6.066406 -11.425781 5.65625 -10.523438 5.5 -9.359375 Z M 12.703125 -9.359375 "/></g></g></g></svg>