<svg xmlns="http://www.w3.org/2000/svg" xmlns:xlink="http://www.w3.org/1999/xlink" width="500" zoomAndPan="magnify" viewBox="0 0 375 103.5" height="138" preserveAspectRatio="xMidYMid meet" version="1.0"><defs><g/><clipPath id="feb26884db"><path d="M 0.902344 41 L 128 41 L 128 45 L 0.902344 45 Z M 0.902344 41 " clip-rule="nonzero"/></clipPath><clipPath id="3765ca8396"><path d="M 247 41 L 374.097656 41 L 374.097656 45 L 247 45 Z M 247 41 " clip-rule="nonzero"/></clipPath><clipPath id="41ae46ce14"><path d="M 0.902344 73 L 128 73 L 128 77 L 0.902344 77 Z M 0.902344 73 " clip-rule="nonzero"/></clipPath><clipPath id="ae5327344a"><path d="M 247 73 L 374.097656 73 L 374.097656 77 L 247 77 Z M 247 73 " clip-rule="nonzero"/></clipPath></defs><g fill="#9c9cdb" fill-opacity="1"><g transform="translate(7.122989, 63.562099)"><g><path d="M 0.84375 -1.5625 L 2.046875 -1.5625 L 2.046875 -9.109375 L 0.84375 -9.109375 L 0.84375 -10.6875 L 6.984375 -10.6875 C 8.191406 -10.6875 9.210938 -10.445312 10.046875 -9.96875 C 10.890625 -9.5 11.519531 -8.863281 11.9375 -8.0625 C 12.363281 -7.257812 12.578125 -6.378906 12.578125 -5.421875 C 12.578125 -3.773438 12.097656 -2.457031 11.140625 -1.46875 C 10.179688 -0.488281 8.800781 0 7 0 L 0.84375 0 Z M 6.59375 -1.5625 C 7.726562 -1.5625 8.566406 -1.898438 9.109375 -2.578125 C 9.648438 -3.265625 9.921875 -4.203125 9.921875 -5.390625 C 9.921875 -6.515625 9.644531 -7.414062 9.09375 -8.09375 C 8.539062 -8.769531 7.710938 -9.109375 6.609375 -9.109375 L 4.609375 -9.109375 L 4.609375 -1.5625 Z M 6.59375 -1.5625 "/></g></g></g><g fill="#9c9cdb" fill-opacity="1"><g transform="translate(22.341329, 63.562099)"><g><path d="M 0.9375 0 L 0.9375 -1.5625 L 2.140625 -1.5625 L 2.140625 -9.109375 L 0.9375 -9.109375 L 0.9375 -10.6875 L 5.9375 -10.6875 L 5.9375 -9.109375 L 4.703125 -9.109375 L 4.703125 -1.5625 L 5.9375 -1.5625 L 5.9375 0 Z M 0.9375 0 "/></g></g></g><g fill="#9c9cdb" fill-opacity="1"><g transform="translate(31.080653, 63.562099)"><g><path d="M 12 -3.3125 C 11.664062 -2.175781 11.035156 -1.304688 10.109375 -0.703125 C 9.179688 -0.109375 8.035156 0.191406 6.671875 0.203125 C 5.523438 0.203125 4.503906 -0.0234375 3.609375 -0.484375 C 2.722656 -0.941406 2.023438 -1.585938 1.515625 -2.421875 C 1.015625 -3.253906 0.765625 -4.226562 0.765625 -5.34375 C 0.765625 -6.4375 1.003906 -7.398438 1.484375 -8.234375 C 1.960938 -9.066406 2.628906 -9.710938 3.484375 -10.171875 C 4.347656 -10.628906 5.332031 -10.859375 6.4375 -10.859375 C 7.226562 -10.859375 7.925781 -10.734375 8.53125 -10.484375 C 9.144531 -10.242188 9.640625 -9.890625 10.015625 -9.421875 L 10.015625 -10.6875 L 11.75 -10.6875 L 11.75 -7.09375 L 10.25 -7.078125 C 9.882812 -7.765625 9.4375 -8.269531 8.90625 -8.59375 C 8.382812 -8.925781 7.742188 -9.09375 6.984375 -9.09375 C 5.890625 -9.09375 5.015625 -8.742188 4.359375 -8.046875 C 3.710938 -7.359375 3.390625 -6.46875 3.390625 -5.375 C 3.390625 -4.613281 3.535156 -3.945312 3.828125 -3.375 C 4.128906 -2.800781 4.535156 -2.359375 5.046875 -2.046875 C 5.566406 -1.742188 6.15625 -1.59375 6.8125 -1.59375 C 7.613281 -1.59375 8.289062 -1.796875 8.84375 -2.203125 C 9.394531 -2.609375 9.789062 -3.234375 10.03125 -4.078125 Z M 12 -3.3125 "/></g></g></g><g fill="#9c9cdb" fill-opacity="1"><g transform="translate(45.962901, 63.562099)"><g><path d="M 0.9375 0 L 0.9375 -1.5625 L 2.140625 -1.5625 L 2.140625 -9.109375 L 0.9375 -9.109375 L 0.9375 -10.6875 L 5.9375 -10.6875 L 5.9375 -9.109375 L 4.703125 -9.109375 L 4.703125 -1.5625 L 5.9375 -1.5625 L 5.9375 0 Z M 0.9375 0 "/></g></g></g><g fill="#9c9cdb" fill-opacity="1"><g transform="translate(54.702225, 63.562099)"><g><path d="M 0.828125 0 L 0.828125 -1.5625 L 2.03125 -1.5625 L 2.03125 -9.109375 L 0.828125 -9.109375 L 0.828125 -10.6875 L 10.640625 -10.6875 L 10.640625 -7.1875 L 8.984375 -7.1875 L 8.984375 -9.109375 L 4.609375 -9.109375 L 4.609375 -6.25 L 6.859375 -6.25 L 6.859375 -7.375 L 8.140625 -7.375 L 8.140625 -3.578125 L 6.875 -3.578125 L 6.875 -4.75 L 4.609375 -4.75 L 4.609375 -1.59375 L 9.0625 -1.59375 L 9.0625 -3.640625 L 10.734375 -3.640625 L 10.734375 0 Z M 0.828125 0 "/></g></g></g><g fill="#9c9cdb" fill-opacity="1"><g transform="translate(68.258797, 63.562099)"><g><path d="M 0.84375 0 L 0.84375 -1.5625 L 2.015625 -1.5625 L 2.015625 -9.109375 L 0.84375 -9.109375 L 0.84375 -10.6875 L 5.515625 -10.6875 L 8.265625 -4.3125 L 10.9375 -10.6875 L 15.5 -10.6875 L 15.5 -9.109375 L 14.296875 -9.109375 L 14.296875 -1.5625 L 15.5 -1.5625 L 15.5 0 L 10.703125 0 L 10.703125 -1.5625 L 11.859375 -1.5625 L 11.859375 -8.4375 L 8.5 -0.46875 L 7.453125 -0.46875 L 4.03125 -8.4375 L 4.03125 -1.5625 L 5.1875 -1.5625 L 5.1875 0 Z M 0.84375 0 "/></g></g></g><g fill="#9c9cdb" fill-opacity="1"><g transform="translate(86.445903, 63.562099)"><g><path d="M 0.828125 -1.5625 L 2.03125 -1.5625 L 2.03125 -9.109375 L 0.828125 -9.109375 L 0.828125 -10.6875 L 6.6875 -10.6875 C 7.96875 -10.6875 8.925781 -10.457031 9.5625 -10 C 10.207031 -9.539062 10.53125 -8.894531 10.53125 -8.0625 C 10.53125 -6.84375 9.894531 -6.082031 8.625 -5.78125 C 9.457031 -5.625 10.078125 -5.300781 10.484375 -4.8125 C 10.890625 -4.332031 11.09375 -3.738281 11.09375 -3.03125 C 11.09375 -2.09375 10.742188 -1.351562 10.046875 -0.8125 C 9.359375 -0.269531 8.3125 0 6.90625 0 L 0.828125 0 Z M 6.234375 -6.390625 C 7.367188 -6.390625 7.9375 -6.851562 7.9375 -7.78125 C 7.9375 -8.25 7.785156 -8.585938 7.484375 -8.796875 C 7.191406 -9.003906 6.710938 -9.109375 6.046875 -9.109375 L 4.59375 -9.109375 L 4.59375 -6.390625 Z M 6.40625 -1.59375 C 7.757812 -1.59375 8.4375 -2.144531 8.4375 -3.25 C 8.4375 -3.769531 8.265625 -4.171875 7.921875 -4.453125 C 7.578125 -4.734375 7.054688 -4.875 6.359375 -4.875 L 4.59375 -4.875 L 4.59375 -1.59375 Z M 6.40625 -1.59375 "/></g></g></g><g fill="#9c9cdb" fill-opacity="1"><g transform="translate(100.058486, 63.562099)"><g><path d="M 0.828125 -1.5625 L 2.03125 -1.5625 L 2.03125 -9.109375 L 0.828125 -9.109375 L 0.828125 -10.6875 L 6.984375 -10.6875 C 8.265625 -10.6875 9.273438 -10.4375 10.015625 -9.9375 C 10.753906 -9.4375 11.125 -8.675781 11.125 -7.65625 C 11.125 -6.132812 10.328125 -5.195312 8.734375 -4.84375 L 10.734375 -1.59375 L 12 -1.59375 L 12 0 L 8.890625 0 L 6.28125 -4.53125 L 5.296875 -4.53125 L 5.296875 -6.140625 L 6.734375 -6.140625 C 7.359375 -6.140625 7.8125 -6.28125 8.09375 -6.5625 C 8.375 -6.84375 8.515625 -7.21875 8.515625 -7.6875 C 8.515625 -8.113281 8.375 -8.457031 8.09375 -8.71875 C 7.820312 -8.976562 7.421875 -9.109375 6.890625 -9.109375 L 4.59375 -9.109375 L 4.59375 -1.5625 L 5.765625 -1.5625 L 5.765625 0 L 0.828125 0 Z M 0.828125 -1.5625 "/></g></g></g><g fill="#9c9cdb" fill-opacity="1"><g transform="translate(114.511286, 63.562099)"><g><path d="M 0.828125 0 L 0.828125 -1.5625 L 2.03125 -1.5625 L 2.03125 -9.109375 L 0.828125 -9.109375 L 0.828125 -10.6875 L 10.640625 -10.6875 L 10.640625 -7.1875 L 8.984375 -7.1875 L 8.984375 -9.109375 L 4.609375 -9.109375 L 4.609375 -6.25 L 6.859375 -6.25 L 6.859375 -7.375 L 8.140625 -7.375 L 8.140625 -3.578125 L 6.875 -3.578125 L 6.875 -4.75 L 4.609375 -4.75 L 4.609375 -1.59375 L 9.0625 -1.59375 L 9.0625 -3.640625 L 10.734375 -3.640625 L 10.734375 0 Z M 0.828125 0 "/></g></g></g><g fill="#9c9cdb" fill-opacity="1"><g transform="translate(286.617526, 63.988304)"><g><path d="M 11.0625 -4.34375 L 11.0625 0 L 1.015625 0 L 1.046875 -1.875 L 5.21875 -5.890625 C 6.25 -6.898438 6.960938 -7.6875 7.359375 -8.25 C 7.765625 -8.820312 7.96875 -9.429688 7.96875 -10.078125 C 7.96875 -10.671875 7.800781 -11.148438 7.46875 -11.515625 C 7.132812 -11.878906 6.644531 -12.0625 6 -12.0625 C 5.3125 -12.0625 4.769531 -11.847656 4.375 -11.421875 C 3.976562 -11.003906 3.78125 -10.425781 3.78125 -9.6875 C 3.78125 -9.351562 3.835938 -8.882812 3.953125 -8.28125 L 1.34375 -8.28125 C 1.175781 -8.851562 1.09375 -9.390625 1.09375 -9.890625 C 1.09375 -11.160156 1.539062 -12.191406 2.4375 -12.984375 C 3.34375 -13.773438 4.609375 -14.171875 6.234375 -14.171875 C 7.691406 -14.171875 8.835938 -13.828125 9.671875 -13.140625 C 10.515625 -12.460938 10.9375 -11.554688 10.9375 -10.421875 C 10.9375 -9.484375 10.640625 -8.59375 10.046875 -7.75 C 9.453125 -6.914062 8.425781 -5.828125 6.96875 -4.484375 L 4.40625 -2.015625 L 8.984375 -2.015625 L 8.984375 -4.34375 Z M 11.0625 -4.34375 "/></g></g></g><g fill="#9c9cdb" fill-opacity="1"><g transform="translate(301.351274, 63.988304)"><g><path d="M 6.84375 0.265625 C 4.988281 0.265625 3.566406 -0.363281 2.578125 -1.625 C 1.585938 -2.894531 1.09375 -4.691406 1.09375 -7.015625 C 1.09375 -9.273438 1.585938 -11.03125 2.578125 -12.28125 C 3.566406 -13.539062 4.988281 -14.171875 6.84375 -14.171875 C 8.675781 -14.171875 10.085938 -13.546875 11.078125 -12.296875 C 12.066406 -11.046875 12.5625 -9.285156 12.5625 -7.015625 C 12.5625 -4.691406 12.070312 -2.894531 11.09375 -1.625 C 10.113281 -0.363281 8.695312 0.265625 6.84375 0.265625 Z M 6.84375 -1.96875 C 8.632812 -1.96875 9.53125 -3.648438 9.53125 -7.015625 C 9.53125 -10.304688 8.632812 -11.953125 6.84375 -11.953125 C 5.0625 -11.953125 4.171875 -10.304688 4.171875 -7.015625 C 4.171875 -3.648438 5.0625 -1.96875 6.84375 -1.96875 Z M 6.84375 -1.96875 "/></g></g></g><g fill="#9c9cdb" fill-opacity="1"><g transform="translate(317.47303, 63.988304)"><g><path d="M 11.0625 -4.34375 L 11.0625 0 L 1.015625 0 L 1.046875 -1.875 L 5.21875 -5.890625 C 6.25 -6.898438 6.960938 -7.6875 7.359375 -8.25 C 7.765625 -8.820312 7.96875 -9.429688 7.96875 -10.078125 C 7.96875 -10.671875 7.800781 -11.148438 7.46875 -11.515625 C 7.132812 -11.878906 6.644531 -12.0625 6 -12.0625 C 5.3125 -12.0625 4.769531 -11.847656 4.375 -11.421875 C 3.976562 -11.003906 3.78125 -10.425781 3.78125 -9.6875 C 3.78125 -9.351562 3.835938 -8.882812 3.953125 -8.28125 L 1.34375 -8.28125 C 1.175781 -8.851562 1.09375 -9.390625 1.09375 -9.890625 C 1.09375 -11.160156 1.539062 -12.191406 2.4375 -12.984375 C 3.34375 -13.773438 4.609375 -14.171875 6.234375 -14.171875 C 7.691406 -14.171875 8.835938 -13.828125 9.671875 -13.140625 C 10.515625 -12.460938 10.9375 -11.554688 10.9375 -10.421875 C 10.9375 -9.484375 10.640625 -8.59375 10.046875 -7.75 C 9.453125 -6.914062 8.425781 -5.828125 6.96875 -4.484375 L 4.40625 -2.015625 L 8.984375 -2.015625 L 8.984375 -4.34375 Z M 11.0625 -4.34375 "/></g></g></g><g fill="#9c9cdb" fill-opacity="1"><g transform="translate(332.206779, 63.988304)"><g><path d="M 4.65625 0 L 4.65625 -1.921875 L 7.015625 -1.921875 L 7.015625 -4.015625 L 0.703125 -4.015625 L 0.46875 -5.5 L 7.09375 -13.9375 L 9.890625 -13.9375 L 9.890625 -5.75 L 11.953125 -5.75 L 11.953125 -4.015625 L 9.890625 -4.015625 L 9.890625 -1.921875 L 11.578125 -1.921875 L 11.578125 0 Z M 2.875 -5.75 L 7.015625 -5.75 L 7.015625 -11.125 Z M 2.875 -5.75 "/></g></g></g><g fill="#9c9cdb" fill-opacity="1"><g transform="translate(151.143833, 23.79284)"><g><path d="M 4.890625 -2.015625 L -2.140625 -8.75 L -3.125 -8.34375 L -3.703125 -9.78125 L 0.890625 -11.671875 L 1.46875 -10.234375 L 0.28125 -9.75 L 4.828125 -4.953125 L 4.640625 -11.546875 L 3.484375 -11.0625 L 2.90625 -12.5 L 7.015625 -14.1875 L 7.59375 -12.75 L 6.609375 -12.34375 L 6.59375 -2.703125 Z M 4.890625 -2.015625 "/></g></g></g><g fill="#9c9cdb" fill-opacity="1"><g transform="translate(162.890149, 19.157981)"><g><path d="M 0.875 -0.25 L 0.453125 -1.71875 L 1.59375 -2.046875 L -0.421875 -9.140625 L -1.5625 -8.8125 L -1.984375 -10.3125 L 2.734375 -11.65625 L 3.15625 -10.15625 L 2 -9.828125 L 4.015625 -2.734375 L 5.171875 -3.0625 L 5.59375 -1.59375 Z M 0.875 -0.25 "/></g></g></g><g fill="#9c9cdb" fill-opacity="1"><g transform="translate(169.802841, 17.089071)"><g><path d="M 0.78125 -0.125 L 0.53125 -1.640625 L 1.703125 -1.84375 L 0.46875 -9.109375 L -0.703125 -8.90625 L -0.953125 -10.4375 L 8.53125 -12.046875 L 9.09375 -8.671875 L 7.484375 -8.390625 L 7.171875 -10.234375 L 2.96875 -9.53125 L 3.4375 -6.796875 L 5.59375 -7.15625 L 5.40625 -8.234375 L 6.65625 -8.453125 L 7.28125 -4.78125 L 6.046875 -4.5625 L 5.859375 -5.6875 L 3.6875 -5.328125 L 4.203125 -2.28125 L 8.484375 -3 L 8.140625 -4.984375 L 9.765625 -5.265625 L 10.359375 -1.75 Z M 0.78125 -0.125 "/></g></g></g><g fill="#9c9cdb" fill-opacity="1"><g transform="translate(181.448341, 15.122182)"><g><path d="M 0.75 -1.546875 L 1.9375 -1.578125 L 1.75 -8.953125 L 0.5625 -8.921875 L 0.515625 -10.46875 L 6.546875 -10.640625 C 7.804688 -10.671875 8.804688 -10.453125 9.546875 -9.984375 C 10.285156 -9.515625 10.664062 -8.78125 10.6875 -7.78125 C 10.726562 -6.300781 9.972656 -5.363281 8.421875 -4.96875 L 10.453125 -1.828125 L 11.703125 -1.859375 L 11.75 -0.3125 L 8.6875 -0.234375 L 6.015625 -4.59375 L 5.0625 -4.578125 L 5.03125 -6.15625 L 6.4375 -6.1875 C 7.039062 -6.207031 7.472656 -6.351562 7.734375 -6.625 C 8.003906 -6.90625 8.132812 -7.28125 8.125 -7.75 C 8.113281 -8.15625 7.972656 -8.484375 7.703125 -8.734375 C 7.429688 -8.984375 7.03125 -9.097656 6.5 -9.078125 L 4.265625 -9.03125 L 4.453125 -1.65625 L 5.59375 -1.6875 L 5.640625 -0.15625 L 0.796875 -0.015625 Z M 0.75 -1.546875 "/></g></g></g><g fill="#9c9cdb" fill-opacity="1"><g transform="translate(194.093819, 14.771037)"><g><path d="M 0.828125 0.109375 L 1.015625 -1.40625 L 2.203125 -1.265625 L 3.125 -8.59375 L 1.9375 -8.734375 L 2.125 -10.265625 L 6.203125 -9.765625 L 10.1875 -1.921875 L 10.90625 -7.625 L 9.65625 -7.78125 L 9.84375 -9.3125 L 14 -8.78125 L 13.8125 -7.25 L 12.625 -7.40625 L 11.515625 1.4375 L 9.015625 1.125 L 4.671875 -7.375 L 3.875 -1.046875 L 5.15625 -0.890625 L 4.96875 0.625 Z M 0.828125 0.109375 "/></g></g></g><g fill="#9c9cdb" fill-opacity="1"><g transform="translate(207.711896, 16.572306)"><g><path d="M 0.765625 0.21875 L 1.171875 -1.25 L 2.3125 -0.9375 L 4.28125 -8.046875 L 3.140625 -8.359375 L 3.5625 -9.859375 L 12.828125 -7.296875 L 11.90625 -4 L 10.34375 -4.4375 L 10.84375 -6.234375 L 6.71875 -7.375 L 5.984375 -4.703125 L 8.09375 -4.109375 L 8.390625 -5.15625 L 9.609375 -4.828125 L 8.609375 -1.25 L 7.40625 -1.578125 L 7.703125 -2.671875 L 5.578125 -3.265625 L 4.75 -0.28125 L 8.9375 0.890625 L 9.484375 -1.0625 L 11.078125 -0.625 L 10.125 2.8125 Z M 0.765625 0.21875 "/></g></g></g><g fill="#9c9cdb" fill-opacity="1"><g transform="translate(219.108543, 19.799925)"><g><path d="M 8.078125 -3.484375 C 9.109375 -2.804688 9.78125 -2.125 10.09375 -1.4375 C 10.414062 -0.75 10.390625 0.0390625 10.015625 0.9375 C 9.640625 1.820312 9.039062 2.414062 8.21875 2.71875 C 7.40625 3.019531 6.5 2.957031 5.5 2.53125 C 4.914062 2.28125 4.40625 1.929688 3.96875 1.484375 C 3.53125 1.035156 3.238281 0.554688 3.09375 0.046875 L 2.640625 1.125 L 1.015625 0.4375 L 2.390625 -2.828125 L 3.84375 -2.21875 C 3.769531 -1.519531 3.898438 -0.878906 4.234375 -0.296875 C 4.566406 0.285156 5.082031 0.726562 5.78125 1.03125 C 6.226562 1.21875 6.617188 1.257812 6.953125 1.15625 C 7.285156 1.050781 7.535156 0.804688 7.703125 0.421875 C 7.890625 -0.015625 7.894531 -0.382812 7.71875 -0.6875 C 7.539062 -1 7.132812 -1.367188 6.5 -1.796875 L 5.71875 -2.3125 C 4.789062 -2.9375 4.175781 -3.601562 3.875 -4.3125 C 3.570312 -5.019531 3.59375 -5.78125 3.9375 -6.59375 C 4.289062 -7.445312 4.859375 -8.007812 5.640625 -8.28125 C 6.429688 -8.550781 7.300781 -8.484375 8.25 -8.078125 C 8.851562 -7.828125 9.347656 -7.507812 9.734375 -7.125 C 10.117188 -6.738281 10.390625 -6.316406 10.546875 -5.859375 L 10.921875 -6.734375 L 12.4375 -6.09375 L 11.25 -3.3125 L 9.859375 -3.890625 C 9.898438 -4.421875 9.789062 -4.914062 9.53125 -5.375 C 9.28125 -5.832031 8.820312 -6.207031 8.15625 -6.5 C 7.71875 -6.675781 7.332031 -6.71875 7 -6.625 C 6.675781 -6.53125 6.445312 -6.316406 6.3125 -5.984375 C 6.144531 -5.597656 6.164062 -5.238281 6.375 -4.90625 C 6.582031 -4.570312 6.988281 -4.203125 7.59375 -3.796875 Z M 8.078125 -3.484375 "/></g></g></g><g fill="#9c9cdb" fill-opacity="1"><g transform="translate(155.439533, 80.762407)"><g><path d="M 0.59375 0 C 0.59375 -1.894531 1.035156 -3.523438 1.921875 -4.890625 C 2.816406 -6.253906 3.925781 -7.457031 5.25 -8.5 C 6.570312 -9.550781 7.867188 -10.550781 9.140625 -11.5 C 10.398438 -12.445312 11.691406 -13.460938 13.015625 -14.546875 C 14.335938 -15.640625 15.550781 -16.914062 16.65625 -18.375 C 17.769531 -19.84375 18.671875 -21.613281 19.359375 -23.6875 C 20.054688 -25.769531 20.40625 -28.273438 20.40625 -31.203125 C 20.40625 -33.648438 19.988281 -35.535156 19.15625 -36.859375 C 18.320312 -38.179688 17.15625 -38.84375 15.65625 -38.84375 C 14.070312 -38.84375 12.785156 -38.171875 11.796875 -36.828125 C 10.804688 -35.484375 10.3125 -33.941406 10.3125 -32.203125 C 10.3125 -31.210938 10.488281 -30.234375 10.84375 -29.265625 C 11.207031 -28.296875 11.785156 -27.414062 12.578125 -26.625 C 12.578125 -25.082031 12.109375 -23.847656 11.171875 -22.921875 C 10.242188 -21.992188 9.03125 -21.53125 7.53125 -21.53125 C 5.832031 -21.53125 4.367188 -22.128906 3.140625 -23.328125 C 1.921875 -24.535156 1.3125 -26.171875 1.3125 -28.234375 C 1.3125 -30.679688 1.953125 -32.804688 3.234375 -34.609375 C 4.515625 -36.410156 6.257812 -37.796875 8.46875 -38.765625 C 10.6875 -39.734375 13.203125 -40.21875 16.015625 -40.21875 C 18.785156 -40.21875 21.285156 -39.738281 23.515625 -38.78125 C 25.742188 -37.832031 27.507812 -36.46875 28.8125 -34.6875 C 30.125 -32.914062 30.78125 -30.765625 30.78125 -28.234375 C 30.78125 -25.898438 30.242188 -23.878906 29.171875 -22.171875 C 28.109375 -20.472656 26.726562 -19 25.03125 -17.75 C 23.332031 -16.507812 21.503906 -15.425781 19.546875 -14.5 C 17.585938 -13.570312 15.675781 -12.710938 13.8125 -11.921875 C 11.957031 -11.128906 10.359375 -10.316406 9.015625 -9.484375 C 8.140625 -8.929688 7.4375 -8.300781 6.90625 -7.59375 C 6.375 -6.882812 6.007812 -6.132812 5.8125 -5.34375 C 6.644531 -6.644531 7.945312 -7.601562 9.71875 -8.21875 C 11.5 -8.832031 13.535156 -9.140625 15.828125 -9.140625 L 22.53125 -9.140625 C 24.46875 -9.140625 25.910156 -9.328125 26.859375 -9.703125 C 27.816406 -10.078125 28.671875 -10.660156 29.421875 -11.453125 L 30.71875 -11.453125 L 30.78125 0 Z M 0.59375 0 "/></g></g></g><g fill="#9c9cdb" fill-opacity="1"><g transform="translate(187.40696, 80.762407)"><g><path d="M 18.203125 0.46875 C 14.566406 0.46875 11.53125 -0.359375 9.09375 -2.015625 C 6.664062 -3.671875 4.835938 -6.007812 3.609375 -9.03125 C 2.390625 -12.0625 1.78125 -15.59375 1.78125 -19.625 C 1.78125 -23.664062 2.390625 -27.195312 3.609375 -30.21875 C 4.835938 -33.238281 6.664062 -35.578125 9.09375 -37.234375 C 11.53125 -38.898438 14.566406 -39.734375 18.203125 -39.734375 C 21.835938 -39.734375 24.867188 -38.898438 27.296875 -37.234375 C 29.734375 -35.578125 31.566406 -33.238281 32.796875 -30.21875 C 34.023438 -27.195312 34.640625 -23.664062 34.640625 -19.625 C 34.640625 -15.59375 34.023438 -12.0625 32.796875 -9.03125 C 31.566406 -6.007812 29.734375 -3.671875 27.296875 -2.015625 C 24.867188 -0.359375 21.835938 0.46875 18.203125 0.46875 Z M 18.203125 -38.375 C 16.898438 -38.375 15.890625 -37.847656 15.171875 -36.796875 C 14.460938 -35.753906 13.941406 -34.332031 13.609375 -32.53125 C 13.273438 -30.726562 13.066406 -28.71875 12.984375 -26.5 C 12.910156 -24.289062 12.875 -22 12.875 -19.625 C 12.875 -17.257812 12.910156 -14.96875 12.984375 -12.75 C 13.066406 -10.539062 13.273438 -8.535156 13.609375 -6.734375 C 13.941406 -4.929688 14.460938 -3.503906 15.171875 -2.453125 C 15.890625 -1.410156 16.898438 -0.890625 18.203125 -0.890625 C 19.515625 -0.890625 20.523438 -1.410156 21.234375 -2.453125 C 21.941406 -3.503906 22.460938 -4.929688 22.796875 -6.734375 C 23.140625 -8.535156 23.347656 -10.539062 23.421875 -12.75 C 23.503906 -14.96875 23.546875 -17.257812 23.546875 -19.625 C 23.546875 -22 23.503906 -24.289062 23.421875 -26.5 C 23.347656 -28.71875 23.140625 -30.726562 22.796875 -32.53125 C 22.460938 -34.332031 21.941406 -35.753906 21.234375 -36.796875 C 20.523438 -37.847656 19.515625 -38.375 18.203125 -38.375 Z M 18.203125 -38.375 "/></g></g></g><g clip-path="url(#feb26884db)"><path stroke-linecap="butt" transform="matrix(0.473539, 0, 0, 0.473539, 0.901442, 41.706999)" fill="none" stroke-linejoin="miter" d="M 0.00190363 2.499531 L 264.639785 2.499531 " stroke="#9c9cdb" stroke-width="5" stroke-opacity="1" stroke-miterlimit="4"/></g><g clip-path="url(#3765ca8396)"><path stroke-linecap="butt" transform="matrix(0.473539, 0, 0, 0.473539, 248.78193, 41.706999)" fill="none" stroke-linejoin="miter" d="M -0.00143526 2.499531 L 264.636446 2.499531 " stroke="#9c9cdb" stroke-width="5" stroke-opacity="1" stroke-miterlimit="4"/></g><g clip-path="url(#41ae46ce14)"><path stroke-linecap="butt" transform="matrix(0.473539, 0.000000000000000814, -0.000000000000000814, 0.473539, 0.901442, 73.685569)" fill="none" stroke-linejoin="miter" d="M 0.00190363 2.50354 L 264.639785 2.50354 " stroke="#9c9cdb" stroke-width="5" stroke-opacity="1" stroke-miterlimit="4"/></g><g clip-path="url(#ae5327344a)"><path stroke-linecap="butt" transform="matrix(0.473539, 0.000000000000000814, -0.000000000000000814, 0.473539, 248.78193, 73.685569)" fill="none" stroke-linejoin="miter" d="M -0.00143526 2.50354 L 264.636446 2.50354 " stroke="#9c9cdb" stroke-width="5" stroke-opacity="1" stroke-miterlimit="4"/></g></svg>